<svg width="102" height="101" viewBox="0 0 102 101" fill="none" xmlns="http://www.w3.org/2000/svg">
<g clip-path="url(#clip0_1294_24399)">
<path d="M80.6281 74.5541C91.8952 85.8814 81.3251 101.524 68.2625 100.822C58.2843 100.283 54.6219 95.7231 48.2215 95.3784C41.8212 95.033 37.6872 99.174 27.7082 98.6368C14.6463 97.9323 5.8291 81.2429 18.2545 71.1922C33.6961 58.7034 38.7918 42.2236 51.068 42.8855C63.3456 43.5475 66.6286 60.4782 80.6288 74.5548L80.6281 74.5541Z" fill="#CE7474"/>
<path d="M101.107 53.8631C99.4119 62.3089 92.4232 68.037 85.4963 66.6548C78.5694 65.2733 74.3288 57.3058 76.0233 48.8586C78.0641 38.6922 85.8647 28.9327 92.7909 30.3149C99.7164 31.697 103.307 42.8983 101.106 53.8631H101.107Z" fill="#CE7474"/>
<path d="M23.4734 21.8576C23.1207 10.681 28.5209 0.223965 35.5812 0.00331223C42.6414 -0.218026 48.7152 10.6927 49.0417 21.0558C49.3126 29.6661 43.8086 36.825 36.7497 37.0456C29.6895 37.267 23.7456 30.4665 23.4734 21.8576Z" fill="#CE7474"/>
<path d="M55.4439 21.4004C56.8895 11.1332 64.1072 0.938633 71.1021 1.91787C78.0984 2.89642 82.3355 13.8722 80.7758 24.9439C79.5742 33.4754 72.9306 39.5968 65.9343 38.6176C58.94 37.6404 54.2423 29.9312 55.4432 21.4004H55.4439Z" fill="#CE7474"/>
<path d="M14.2695 62.8176C7.23465 63.4466 0.903734 57.0018 0.132476 48.4223C-0.86906 37.2848 3.91247 26.5338 10.9473 25.9048C17.9835 25.2757 24.6821 35.8163 25.6115 46.1425C26.3834 54.7219 21.3063 62.1878 14.2702 62.8169L14.2695 62.8176Z" fill="#CE7474"/>
</g>
<defs>
<clipPath id="clip0_1294_24399">
<rect width="101.753" height="100.845" fill="white"/>
</clipPath>
</defs>
</svg>
